<svg width="156" height="19" viewBox="0 0 156 19" fill="none" xmlns="http://www.w3.org/2000/svg">
<path d="M5.35018 18.5263C4.08352 18.5263 3.02518 18.2763 2.17518 17.7763C1.34185 17.2597 0.775183 16.5097 0.475183 15.5263L1.65018 14.8763C2.10018 16.4597 3.35852 17.2513 5.42518 17.2513C6.70852 17.2513 7.79185 16.918 8.67518 16.2513C9.55852 15.5847 10.1085 14.6513 10.3252 13.4513L12.5502 0.751342H13.8752L11.6502 13.4763C11.3502 15.143 10.6169 16.4013 9.45018 17.2513C8.28352 18.1013 6.91685 18.5263 5.35018 18.5263ZM21.2185 18.5263C19.2685 18.5263 17.7769 17.9597 16.7435 16.8263C15.7102 15.6597 15.3519 14.1847 15.6685 12.4013L17.7185 0.751342H19.0435L16.9935 12.4013C16.7435 13.868 16.9852 15.043 17.7185 15.9263C18.4519 16.8097 19.6102 17.2513 21.1935 17.2513C22.8269 17.2513 24.1685 16.8013 25.2185 15.9013C26.2685 14.968 26.9185 13.8013 27.1685 12.4013L29.2185 0.751342H30.5435L28.4935 12.4013C28.1602 14.2847 27.3352 15.7763 26.0185 16.8763C24.6852 17.9763 23.0852 18.5263 21.2185 18.5263ZM35.9683 0.751342L33.1183 17.0013H41.3683L41.1433 18.2513H31.5683L34.6433 0.751342H35.9683ZM43.8974 18.2513L46.9724 0.751342H48.2974L45.2224 18.2513H43.8974ZM62.7365 18.2513H61.3865L60.4865 13.8013H51.7115L49.2115 18.2513H47.7615L57.6365 0.751342H59.0365L62.7365 18.2513ZM58.1365 2.37634L52.4115 12.5513H60.2115L58.1365 2.37634ZM83.5742 8.17634V0.751342H85.8742V18.2513H83.5742V10.3763H75.0742V18.2513H72.7492V0.751342H75.0742V8.17634H83.5742ZM89.3943 12.3763V0.751342H91.7193V12.2763C91.7193 13.5263 92.086 14.5097 92.8193 15.2263C93.5693 15.943 94.6193 16.3013 95.9693 16.3013C97.3193 16.3013 98.361 15.943 99.0943 15.2263C99.8443 14.5097 100.219 13.5263 100.219 12.2763V0.751342H102.519V12.3763C102.519 14.2763 101.911 15.7847 100.694 16.9013C99.4777 18.018 97.9027 18.5763 95.9693 18.5763C94.0193 18.5763 92.436 18.018 91.2193 16.9013C90.0027 15.7847 89.3943 14.2763 89.3943 12.3763ZM119.586 18.2513H117.111L115.686 14.3263H107.811L106.386 18.2513H103.911L110.436 0.751342H113.061L119.586 18.2513ZM111.736 3.52634L108.611 12.1513H114.886L111.736 3.52634ZM132.526 13.8013V0.751342H134.851V18.2513H132.976L123.976 5.17634V18.2513H121.651V0.751342H123.526L132.526 13.8013ZM146.719 9.57634H155.469V10.6263C155.469 12.9097 154.686 14.8097 153.119 16.3263C151.552 17.8263 149.477 18.5763 146.894 18.5763C144.227 18.5763 142.019 17.7013 140.269 15.9513C138.536 14.168 137.669 12.018 137.669 9.50134C137.669 6.98468 138.536 4.84301 140.269 3.07634C142.019 1.30967 144.211 0.426341 146.844 0.426341C148.444 0.426341 149.927 0.818008 151.294 1.60134C152.677 2.38468 153.719 3.40134 154.419 4.65134L152.419 5.82634C151.919 4.87634 151.161 4.11801 150.144 3.55134C149.127 2.96801 148.019 2.67634 146.819 2.67634C144.802 2.67634 143.161 3.33468 141.894 4.65134C140.611 5.96801 139.969 7.58468 139.969 9.50134C139.969 11.418 140.611 13.0347 141.894 14.3513C143.194 15.6513 144.869 16.3013 146.919 16.3013C148.636 16.3013 150.036 15.8847 151.119 15.0513C152.219 14.2013 152.894 13.0763 153.144 11.6763H146.719V9.57634Z" fill="black"/>
</svg>
